<svg width="96" height="16" viewBox="0 0 96 16" fill="none" xmlns="http://www.w3.org/2000/svg">
<path d="M58.1153 15V5.24H60.0753V6.98C60.582 5.82 61.6353 5.17333 63.2353 5.04L63.8953 5L64.0353 6.72L62.8153 6.84C61.042 7.01333 60.1553 7.92667 60.1553 9.58V15H58.1153Z" fill="black"/>
<path d="M51.9531 15.18C50.3531 15.18 49.0931 14.7333 48.1731 13.84C47.2531 12.9333 46.7931 11.7 46.7931 10.14C46.7931 9.14 46.9931 8.26 47.3931 7.5C47.8065 6.72666 48.3731 6.12666 49.0931 5.7C49.8131 5.27333 50.6398 5.06 51.5731 5.06C52.9198 5.06 53.9798 5.49333 54.7531 6.36C55.5265 7.21333 55.9131 8.39333 55.9131 9.9V10.58H48.7531C48.8998 12.6067 49.9731 13.62 51.9731 13.62C52.5331 13.62 53.0798 13.5333 53.6131 13.36C54.1598 13.1867 54.6731 12.9 55.1531 12.5L55.7531 13.9C55.3131 14.3 54.7465 14.6133 54.0531 14.84C53.3598 15.0667 52.6598 15.18 51.9531 15.18ZM51.6531 6.48C50.8131 6.48 50.1465 6.74 49.6531 7.26C49.1598 7.78 48.8598 8.47333 48.7531 9.34H54.2131C54.1731 8.43333 53.9331 7.73333 53.4931 7.24C53.0531 6.73333 52.4398 6.48 51.6531 6.48Z" fill="black"/>
<path d="M40.0183 15L35.8183 5.23999H37.9983L40.9783 12.66L44.0383 5.23999H46.0983L41.8383 15H40.0183Z" fill="black"/>
<path d="M32.115 2.98001V0.880005H34.475V2.98001H32.115ZM32.295 15V5.24001H34.315V15H32.295Z" fill="black"/>
<path d="M29.3617 15.18C28.2951 15.18 27.4951 14.88 26.9617 14.28C26.4417 13.68 26.1817 12.8 26.1817 11.64V0.899994H28.2017V11.52C28.2017 12.84 28.7417 13.5 29.8217 13.5C29.9817 13.5 30.1284 13.4933 30.2617 13.48C30.4084 13.4667 30.5551 13.44 30.7017 13.4L30.6617 15.02C30.2084 15.1267 29.7751 15.18 29.3617 15.18Z" fill="black"/>
<path d="M20.0195 15.18C18.4195 15.18 17.1595 14.7333 16.2395 13.84C15.3195 12.9333 14.8595 11.7 14.8595 10.14C14.8595 9.14 15.0595 8.26 15.4595 7.5C15.8729 6.72666 16.4395 6.12666 17.1595 5.7C17.8795 5.27333 18.7062 5.06 19.6395 5.06C20.9862 5.06 22.0462 5.49333 22.8195 6.36C23.5929 7.21333 23.9795 8.39333 23.9795 9.9V10.58H16.8195C16.9662 12.6067 18.0395 13.62 20.0395 13.62C20.5995 13.62 21.1462 13.5333 21.6795 13.36C22.2262 13.1867 22.7395 12.9 23.2195 12.5L23.8195 13.9C23.3795 14.3 22.8129 14.6133 22.1195 14.84C21.4262 15.0667 20.7262 15.18 20.0195 15.18ZM19.7195 6.48C18.8795 6.48 18.2129 6.74 17.7195 7.26C17.2262 7.78 16.9262 8.47333 16.8195 9.34H22.2795C22.2395 8.43333 21.9995 7.73333 21.5595 7.24C21.1195 6.73333 20.5062 6.48 19.7195 6.48Z" fill="black"/>
<path d="M0.639999 15V0.899994H5.62C7.94 0.899994 9.72667 1.50666 10.98 2.71999C12.2467 3.93333 12.88 5.67333 12.88 7.93999C12.88 10.2067 12.2467 11.9533 10.98 13.18C9.72667 14.3933 7.94 15 5.62 15H0.639999ZM2.72 13.26H5.5C8.98 13.26 10.72 11.4867 10.72 7.93999C10.72 4.40666 8.98 2.63999 5.5 2.63999H2.72V13.26Z" fill="black"/>
<path d="M91.1391 15.2C90.1524 15.2 89.2924 15.02 88.5591 14.66C87.8391 14.2867 87.2791 13.7667 86.8791 13.1C86.4791 12.4334 86.2791 11.6534 86.2791 10.76C86.2791 9.66669 86.5057 8.69335 86.9591 7.84002C87.4257 6.97335 88.0657 6.28669 88.8791 5.78002C89.6924 5.27335 90.6257 5.02002 91.6791 5.02002C92.7457 5.02002 93.5924 5.26002 94.2191 5.74002C94.8457 6.20669 95.2724 6.83335 95.4991 7.62002C95.7391 8.39335 95.8057 9.24002 95.6991 10.16L95.6391 10.68H88.6191C88.5924 11.4934 88.8191 12.1334 89.2991 12.6C89.7791 13.0667 90.4657 13.3 91.3591 13.3C91.9457 13.3 92.4991 13.22 93.0191 13.06C93.5524 12.8867 94.0257 12.6334 94.4391 12.3L95.0591 13.94C94.5924 14.34 94.0057 14.6534 93.2991 14.88C92.6057 15.0934 91.8857 15.2 91.1391 15.2ZM91.6591 6.72002C91.0991 6.72002 90.6257 6.84002 90.2391 7.08002C89.8524 7.30669 89.5457 7.61335 89.3191 8.00002C89.0924 8.38669 88.9257 8.80002 88.8191 9.24002H93.7791C93.8324 8.52002 93.6924 7.92002 93.3591 7.44002C93.0257 6.96002 92.4591 6.72002 91.6591 6.72002Z" fill="#FE724C"/>
<path d="M68.56 15L70.12 5.22002H72.56L72.3 6.76002C72.6867 6.17335 73.1533 5.74002 73.7 5.46002C74.2467 5.16669 74.8267 5.02002 75.44 5.02002C76.8267 5.02002 77.7267 5.66002 78.14 6.94002C78.86 5.66002 80.0067 5.02002 81.58 5.02002C82.6067 5.02002 83.3867 5.35335 83.92 6.02002C84.4667 6.67335 84.6267 7.71335 84.4 9.14002L83.48 15H80.98L81.9 9.12002C82.1267 7.69335 81.6933 6.98002 80.6 6.98002C79.9333 6.98002 79.3867 7.22669 78.96 7.72002C78.5333 8.20002 78.2467 8.87335 78.1 9.74002L77.26 15H74.76L75.7 9.12002C75.9267 7.69335 75.4933 6.98002 74.4 6.98002C73.7467 6.98002 73.2 7.22669 72.76 7.72002C72.3333 8.20002 72.0467 8.87335 71.9 9.74002L71.06 15H68.56Z" fill="#FE724C"/>
</svg>
