<svg width="150" height="150" viewBox="0 0 150 150" fill="none" xmlns="http://www.w3.org/2000/svg">
<g filter="url(#filter0_d_17_30)">
<rect x="23" y="14" width="104.777" height="104.777" rx="19.5347" fill="#FE724C"/>
</g>
<path d="M72.655 86.1115L77.0929 58.2895H84.0342L83.2945 62.6705C84.3945 61.0015 85.7221 59.7688 87.2772 58.9722C88.8324 58.1378 90.4824 57.7205 92.2272 57.7205C96.172 57.7205 98.7323 59.5412 99.9081 63.1825C101.956 59.5412 105.218 57.7205 109.694 57.7205C112.615 57.7205 114.834 58.6688 116.351 60.5653C117.906 62.4239 118.361 65.3825 117.717 69.4411L115.099 86.1115H107.987L110.605 69.3842C111.249 65.3256 110.017 63.2963 106.906 63.2963C105.01 63.2963 103.455 63.998 102.241 65.4015C101.027 66.767 100.212 68.6824 99.7943 71.1479L97.4047 86.1115H90.2927L92.9668 69.3842C93.6116 65.3256 92.3789 63.2963 89.2686 63.2963C87.41 63.2963 85.8549 63.998 84.6031 65.4015C83.3894 66.767 82.5739 68.6824 82.1566 71.1479L79.767 86.1115H72.655Z" fill="#FEFEFE"/>
<path d="M33 86.1115V46H47.1671C53.767 46 58.8497 47.7258 62.4151 51.1775C66.0185 54.6292 67.8202 59.5791 67.8202 66.0273C67.8202 72.4755 66.0185 77.4444 62.4151 80.934C58.8497 84.3857 53.767 86.1115 47.1671 86.1115H33ZM38.9172 81.1616H46.8257C56.7256 81.1616 61.6755 76.1168 61.6755 66.0273C61.6755 55.9757 56.7256 50.9499 46.8257 50.9499H38.9172V81.1616Z" fill="#FEFEFE"/>
<defs>
<filter id="filter0_d_17_30" x="0.801495" y="0.680897" width="149.174" height="149.174" filterUnits="userSpaceOnUse" color-interpolation-filters="sRGB">
<feFlood flood-opacity="0" result="BackgroundImageFix"/>
<feColorMatrix in="SourceAlpha" type="matrix" values="0 0 0 0 0 0 0 0 0 0 0 0 0 0 0 0 0 0 127 0" result="hardAlpha"/>
<feOffset dy="8.8794"/>
<feGaussianBlur stdDeviation="11.0993"/>
<feColorMatrix type="matrix" values="0 0 0 0 0.858333 0 0 0 0 0.284504 0 0 0 0 0.12875 0 0 0 0.2 0"/>
<feBlend mode="normal" in2="BackgroundImageFix" result="effect1_dropShadow_17_30"/>
<feBlend mode="normal" in="SourceGraphic" in2="effect1_dropShadow_17_30" result="shape"/>
</filter>
</defs>
</svg>
